<svg version="1.1" id="Layer_1" xmlns="http://www.w3.org/2000/svg" xmlns:xlink="http://www.w3.org/1999/xlink" x="0px" y="0px" viewBox="0 0 500 500" style="width: 152px;" xml:space="preserve" data-imageid="notification-69" imageName="Notification" class="illustrations_image">
<style type="text/css">
	.st0_notification-69{fill:#D1D3D4;}
	.st1_notification-69{fill:#FFFFFF;}
	.st2_notification-69{fill:#231F20;}
	.st3_notification-69{fill:#68E1FD;}
</style>
<ellipse id="Shadow_notification-69" class="st0_notification-69" cx="243.6" cy="420.6" rx="70.5" ry="4.1"/>
<g id="Character_notification-69">
	<path class="st1_notification-69" d="M165,242.4c-0.4,0.5-1.7,28.6-3.1,30.1c-3.9,3.9-3.4-4.2-3.4-4.2s-7.5,16.4-11.9,15.1&#10;&#9;&#9;c-8-2.3,0.3-21.2,2.3-25.1c1.9-7.5,2.2-22.5,2.2-22.5"/>
	<path class="st2_notification-69" d="M147,284.2c-0.2,0-0.4,0-0.7-0.1c-1.5-0.4-2.7-1.5-3.2-2.9c-2.6-6.1,3.3-19.7,5.1-23.1&#10;&#9;&#9;c1.9-7.4,2.1-22.1,2.1-22.2c0-0.4,0.3-0.7,0.7-0.7c0.4,0,0.7,0.3,0.7,0.7c0,0.6-0.3,15.2-2.2,22.7l-0.1,0.1c-1.6,3-7.5,16.4-5.1,22&#10;&#9;&#9;c0.4,1,1.3,1.8,2.3,2.1c2.6,0.8,8-8.2,11.1-14.8c0.1-0.3,0.5-0.5,0.8-0.4c0.3,0.1,0.5,0.4,0.5,0.7c-0.1,1.9,0.2,4.2,0.8,4.5&#10;&#9;&#9;c0.2,0.1,0.7-0.1,1.4-0.8c0.8-1.2,1.7-14.5,2.2-21.6c0.6-8,0.6-8.1,0.8-8.4c0.2-0.3,0.7-0.4,1-0.1c0,0,0,0,0,0&#10;&#9;&#9;c0.2,0.2,0.3,0.5,0.2,0.8c-0.1,0.6-0.4,4.1-0.6,7.8c-1,14.6-1.7,21.6-2.6,22.6c-1.1,1.1-2.1,1.5-3,1.1s-1.4-1.7-1.5-3&#10;&#9;&#9;C155.5,275.9,150.8,284.2,147,284.2z"/>
	<path class="st1_notification-69" d="M267.2,179.6l16.8-7.3c0,0,3.4-8.1,6.7-9.1s12-1.6,12-1.6c2.2,1.6,3.3,4.4,2.6,7.1c-1,4.9-7.5,12.8-16.6,14.8&#10;&#9;&#9;l-16.5,14.6"/>
	<path class="st2_notification-69" d="M272.1,198.8c-0.2,0-0.4-0.1-0.5-0.2c-0.3-0.3-0.2-0.7,0.1-1l16.6-14.6c0.1-0.1,0.2-0.1,0.3-0.2&#10;&#9;&#9;c8.9-1.9,15.1-9.6,16-14.2c0.6-2.3-0.2-4.8-2.1-6.2c-1.4,0.1-8.7,0.7-11.6,1.5c-2.5,0.7-5.4,6.5-6.2,8.7c-0.1,0.2-0.2,0.3-0.4,0.4&#10;&#9;&#9;l-16.8,7.3c-0.3,0.2-0.8,0-0.9-0.3c-0.2-0.3,0-0.8,0.3-0.9c0,0,0.1,0,0.1,0l16.5-7.2c0.7-1.6,3.7-8.2,7-9.2s11.8-1.6,12.2-1.6&#10;&#9;&#9;c0.1,0,0.3,0,0.4,0.1c2.5,1.7,3.7,4.9,2.9,7.8c-1,5.1-7.4,13.1-16.9,15.3l-16.4,14.5C272.4,198.7,272.3,198.8,272.1,198.8z"/>
	<polygon class="st2_notification-69" points="301.3,151.6 280.5,178.2 292.6,179.6 311.9,153.8 &#9;"/>
	<path class="st2_notification-69" d="M292.6,180.3L292.6,180.3l-12.2-1.4c-0.3,0-0.5-0.2-0.6-0.4c-0.1-0.2-0.1-0.5,0.1-0.7l20.8-26.5&#10;&#9;&#9;c0.2-0.2,0.4-0.3,0.7-0.2l10.6,2.2c0.4,0.1,0.6,0.5,0.5,0.8c0,0.1-0.1,0.2-0.1,0.3L293.2,180C293,180.2,292.8,180.3,292.6,180.3z&#10;&#9;&#9; M281.8,177.6l10.5,1.2l18.4-24.6l-9.1-1.9L281.8,177.6z"/>
	<polygon class="st1_notification-69" points="301.9,152.1 283.6,175.5 291.7,176.6 309.8,153.8 &#9;"/>
	<path class="st3_notification-69 targetColor" d="M280.5,194.4l-8.2-19.1l-41.4,19.1l4.1,33C235,227.4,272.2,205.2,280.5,194.4z" style="fill: rgb(34, 34, 34);"/>
	<path class="st1_notification-69" d="M277.5,377c0,0,8.8,21.7,8,21.7s-19.8,3-19.8,3s-8.6-17.8-8.5-18.2S277.5,377,277.5,377z"/>
	<path class="st2_notification-69" d="M265.7,402.4c-0.3,0-0.5-0.2-0.6-0.4c-8.8-18.1-8.6-18.5-8.4-18.9s0.3-0.6,20.6-6.9c0.3-0.1,0.7,0.1,0.9,0.4&#10;&#9;&#9;c8.7,21.4,8.2,22,8,22.4c-0.1,0.2-0.4,0.3-0.6,0.3c-0.8,0-12.2,1.8-19.7,3L265.7,402.4z M258.1,383.9c0.9,2.2,5.1,11.1,8,17.1&#10;&#9;&#9;c3.6-0.6,15.5-2.5,18.6-2.9c-0.7-2.6-4.8-13.2-7.7-20.2C270.4,379.9,260.4,383,258.1,383.9z"/>
	<path class="st2_notification-69" d="M285.5,398.7c0,0,31.2,2.3,32.1,8s-46.8,13.9-46.8,13.9l-5.1-18.9L285.5,398.7z"/>
	<path class="st2_notification-69" d="M270.8,421.3c-0.3,0-0.6-0.2-0.7-0.5l-5.1-18.9c-0.1-0.2,0-0.4,0.1-0.6c0.1-0.2,0.3-0.3,0.5-0.3l19.8-3&#10;&#9;&#9;c0,0,0.1,0,0.1,0c5.3,0.4,31.9,2.7,32.7,8.6S282.2,419.3,270.8,421.3L270.8,421.3z M266.6,402.3l4.8,17.5c22.4-3.9,46-9.9,45.5-13&#10;&#9;&#9;c-0.3-2-9.1-5.8-31.4-7.4L266.6,402.3z"/>
	<polygon class="st1_notification-69" points="212,372.3 203,380 190.6,363.1 203.7,352.5 &#9;"/>
	<path class="st2_notification-69" d="M203,380.7L203,380.7c-0.3,0-0.5-0.1-0.6-0.3l-12.4-16.9c-0.2-0.3-0.2-0.7,0.1-1c0,0,0,0,0,0l13.1-10.5&#10;&#9;&#9;c0.2-0.1,0.4-0.2,0.6-0.1c0.2,0.1,0.4,0.2,0.5,0.4l8.3,19.7c0.1,0.3,0,0.6-0.2,0.8l-9,7.7C203.4,380.6,203.2,380.7,203,380.7z&#10;&#9;&#9; M191.6,363.2l11.5,15.8l8.1-6.9l-7.8-18.4L191.6,363.2z"/>
	<path class="st2_notification-69" d="M203,380c0,0,6.3,32.5,0.9,31.4s-26.9-37-26.9-37l13.6-11.4L203,380z"/>
	<path class="st2_notification-69" d="M204.2,412.1c-0.1,0-0.3,0-0.4,0c-5.5-1.1-25.1-33.6-27.4-37.3c-0.2-0.3-0.1-0.7,0.1-0.9l13.6-11.4&#10;&#9;&#9;c0.1-0.1,0.3-0.2,0.5-0.2c0.2,0,0.4,0.1,0.5,0.3l12.4,16.9c0.1,0.1,0.1,0.2,0.1,0.3c0,0.1,1.4,7,2.3,14.4&#10;&#9;&#9;c1.9,15.1,0.1,16.8-0.5,17.4C205.1,412,204.7,412.1,204.2,412.1z M178,374.6c8.6,14.3,22.5,35.4,26.1,36.1c0.1,0,0.3,0,0.4-0.1&#10;&#9;&#9;c2.3-2.2-0.1-19.7-2.1-30.3l-11.8-16.2L178,374.6z"/>
	<path class="st2_notification-69" d="M240.2,225c0,0,53.8,75.8,53.9,82.6c0.2,13.2-81.6,70.1-81.6,70.1l-13.8-25.1l50.2-45.2l-47.1-85.7L240.2,225z&#10;&#9;&#9;"/>
	<path class="st2_notification-69" d="M212.5,378.4h-0.2c-0.2,0-0.4-0.2-0.4-0.3L198.1,353c-0.2-0.3-0.1-0.6,0.1-0.9l49.8-44.8L201.1,222&#10;&#9;&#9;c-0.1-0.2-0.1-0.5,0-0.7c0.1-0.2,0.4-0.3,0.6-0.3l38.5,3.3c0.2,0,0.4,0.1,0.5,0.3c5.5,7.8,53.9,76.2,54.1,83&#10;&#9;&#9;c0.2,13.4-78.6,68.3-81.9,70.7C212.8,378.3,212.6,378.4,212.5,378.4z M199.6,352.7l13.2,23.9c3.6-2.5,22-15.5,40.2-29.6&#10;&#9;&#9;c35.3-27.4,40.5-36.5,40.4-39.4c-0.1-5.4-38.5-60.7-53.6-82l-36.8-3.1l46.5,84.6c0.2,0.3,0.1,0.6-0.1,0.9L199.6,352.7z"/>
	<polygon class="st2_notification-69" points="186.7,233.3 258.9,394.7 286.5,383.2 230,224.7 &#9;"/>
	<path class="st2_notification-69" d="M258.9,395.4c-0.3,0-0.5-0.2-0.6-0.4l-72.2-161.4c-0.2-0.3-0.1-0.7,0.3-0.9c0.1,0,0.1-0.1,0.2-0.1l43.3-8.6&#10;&#9;&#9;c0.3-0.1,0.7,0.1,0.8,0.4L287.2,383c0.1,0.4-0.1,0.7-0.4,0.9l-27.6,11.5C259.1,395.4,259,395.4,258.9,395.4z M187.7,233.8l71.6,160&#10;&#9;&#9;l26.4-11l-56.1-157.3L187.7,233.8z"/>
	<path class="st1_notification-69" d="M268.9,331.8c-0.3,0-0.6-0.2-0.7-0.5l-32.4-87.7c-0.1-0.2,0-0.5,0.1-0.7l5.6-7.6c0.2-0.3,0.6-0.4,1-0.2&#10;&#9;&#9;c0.3,0.2,0.4,0.6,0.2,1c0,0,0,0.1-0.1,0.1l-5.4,7.3l32.3,87.4c0.1,0.4,0,0.8-0.4,0.9C269.1,331.8,269,331.8,268.9,331.8z"/>
	<path class="st1_notification-69" d="M208.6,121.5c-1.6,0.1-3-0.5-3.2-2.7l-0.8-14.1c-0.2-4.2-0.5-8.6,0.4-12.7c0.9-4,3.4-8.1,7.5-8.9&#10;&#9;&#9;c1.4-0.3,2.8-0.1,4.1-0.4c2.6-0.7,4.3-3,6.5-4.5c3.5-2.4,8-2.8,11.9-1c1,0.6,2,1,3.1,1.4c3.4,1,6.8-1.4,10.3-1.7&#10;&#9;&#9;c5.3-0.5,10,3.8,12.1,8.7c2.9,6.6,1.6,15.7-4.8,18.9c-5.1,2.5-10.4,1-15.6,1.2c-5.5,0.2-8,4.4-12,7.6c-3.8,3.1-8.3,5.2-13.2,6.1&#10;&#9;&#9;c-1.8,0.3-2.4,1.1-4,1.6C210.1,121.3,209.3,121.4,208.6,121.5z"/>
	<path class="st2_notification-69" d="M208.3,122.2c-1.8,0.2-3.4-1.1-3.6-2.9c0-0.1,0-0.3,0-0.4l-0.8-14.1c-0.2-4.2-0.5-8.6,0.5-12.9&#10;&#9;&#9;c0.9-4,3.5-8.6,8-9.4c0.7-0.1,1.3-0.2,2-0.2c0.7,0,1.4-0.1,2.1-0.2c1.6-0.6,3-1.5,4.2-2.7c0.7-0.6,1.4-1.2,2.1-1.7&#10;&#9;&#9;c3.7-2.6,8.5-3,12.6-1.1c0.3,0.2,0.7,0.3,1,0.5c0.6,0.4,1.3,0.7,2,0.9c1.9,0.5,3.8-0.1,5.9-0.7c1.3-0.5,2.7-0.8,4.1-1&#10;&#9;&#9;c5.8-0.5,10.7,4.2,12.8,9.1c3,6.8,1.7,16.4-5.1,19.8c-3.7,1.8-7.5,1.6-11.2,1.4c-1.6-0.1-3.1-0.2-4.7-0.1c-3.8,0.2-6,2.3-8.6,4.7&#10;&#9;&#9;c-0.9,0.9-1.9,1.8-3,2.7c-3.9,3.2-8.5,5.3-13.5,6.2c-0.7,0.1-1.5,0.4-2.1,0.8c-0.6,0.3-1.1,0.6-1.8,0.8c-0.8,0.3-1.6,0.4-2.5,0.5&#10;&#9;&#9;L208.3,122.2z M229.9,76.8c-2.3,0-4.5,0.7-6.4,2c-0.7,0.5-1.4,1-2,1.6c-1.3,1.4-2.9,2.4-4.7,3c-0.8,0.2-1.6,0.3-2.4,0.3&#10;&#9;&#9;c-0.6,0-1.2,0.1-1.8,0.2c-3.9,0.7-6.1,4.8-6.9,8.4c-0.9,4.1-0.7,8.4-0.4,12.5l0.8,14.1c0.1,1.5,0.8,2.1,2.4,2l0,0&#10;&#9;&#9;c1.3-0.1,2.5-0.5,3.7-1.1c0.8-0.5,1.6-0.8,2.5-1c4.7-0.9,9.1-3,12.8-6c1-0.8,2-1.7,2.9-2.6c2.7-2.5,5.2-4.9,9.5-5.1&#10;&#9;&#9;c1.6-0.1,3.3,0,4.9,0.1c3.7,0.2,7.1,0.4,10.5-1.2c6.1-3,7.3-11.8,4.5-18c-1.9-4.3-6.3-8.7-11.4-8.3c-1.3,0.2-2.6,0.5-3.9,0.9&#10;&#9;&#9;c-2.2,0.7-4.4,1.4-6.7,0.7c-0.8-0.3-1.5-0.6-2.2-1c-0.3-0.2-0.6-0.3-1-0.5C233.1,77.1,231.5,76.8,229.9,76.8z"/>
	<path class="st1_notification-69" d="M241,108.3c0,0,3.8,9.4,2.3,10.9s-5-0.4-5-0.4"/>
	<path class="st2_notification-69" d="M241.6,120.5c-1.3-0.1-2.6-0.5-3.7-1.1c-0.3-0.2-0.5-0.6-0.3-0.9c0,0,0,0,0,0c0.2-0.3,0.6-0.5,0.9-0.3&#10;&#9;&#9;c0.8,0.4,3.3,1.5,4.2,0.6c0.6-0.6-0.5-5.4-2.4-10.2c-0.1-0.4,0-0.8,0.4-0.9c0.4-0.1,0.8,0,0.9,0.4l0,0c1.2,3,3.8,10,2.1,11.7&#10;&#9;&#9;C243.2,120.3,242.4,120.5,241.6,120.5z"/>
	<path class="st1_notification-69" d="M242,97.1c2.9,3.6,0.7,9.4-0.2,13.3c-1.2,5.5-2.5,11-3.9,16.4c-0.9,3.4-10,1.7-11.3,0.3l-1.5,11.7&#10;&#9;&#9;c0,0-3.4,5.9-10,1.1s-7.4-9.9-7.4-9.9l3.9-15.8c0,0,6,1.3,11-5.1s7.1-17.3,7.1-17.3S239.2,93.7,242,97.1z"/>
	<path class="st2_notification-69" d="M220,142.5c-2-0.1-3.8-0.8-5.4-2.1c-6.8-5-7.6-10.1-7.6-10.3c0-0.1,0-0.2,0-0.3l3.9-15.8&#10;&#9;&#9;c0.1-0.4,0.5-0.6,0.8-0.5c0.2,0,5.6,1.1,10.3-4.9c4.8-6.2,6.9-17,6.9-17.1c0-0.2,0.1-0.3,0.3-0.4c0.2-0.1,0.3-0.1,0.5-0.1&#10;&#9;&#9;c0.4,0.1,9.9,2,12.8,5.6l0,0c2.6,3.2,1.4,8,0.5,11.8c-0.2,0.7-0.4,1.4-0.5,2.1c-1.2,5.5-2.5,11-3.9,16.5c-0.4,1.2-1.4,2-2.6,2.2&#10;&#9;&#9;c-3,0.5-6.1,0.2-8.9-1l-1.4,10.7c0,0.1,0,0.2-0.1,0.3c-1,1.6-2.6,2.8-4.4,3.2C220.8,142.5,220.4,142.5,220,142.5z M208.4,130&#10;&#9;&#9;c0.2,0.8,1.4,5.1,7.1,9.3c2,1.5,3.8,2,5.5,1.7c1.4-0.4,2.6-1.2,3.4-2.4l1.5-11.6c0-0.4,0.4-0.6,0.8-0.6c0.2,0,0.3,0.1,0.4,0.2&#10;&#9;&#9;c0.8,0.7,5.7,2,8.6,1.2c0.9-0.2,1.4-0.7,1.6-1.2c1.4-5.4,2.7-10.9,3.9-16.4c0.1-0.7,0.3-1.4,0.5-2.2c0.9-3.5,2-7.9-0.2-10.6&#10;&#9;&#9;s-9.1-4.5-11.3-5c-0.6,2.6-2.7,11.4-7.1,17s-9.2,5.6-11,5.5L208.4,130z"/>
	<path class="st1_notification-69" d="M238.7,122.7c0,0-4.8,1.8-6.2-3.1"/>
	<path class="st2_notification-69" d="M236.8,123.7c-2.4,0.1-4.5-1.6-4.9-3.9c-0.1-0.4,0.1-0.8,0.5-0.9c0.4-0.1,0.8,0.1,0.9,0.5&#10;&#9;&#9;c0.2,1.1,0.9,2,1.8,2.5c1.1,0.5,2.3,0.5,3.4,0.1c0.4-0.2,0.8,0,0.9,0.3c0.2,0.4,0,0.8-0.3,0.9c0,0-0.1,0-0.1,0&#10;&#9;&#9;C238.2,123.6,237.5,123.7,236.8,123.7z"/>
	<path class="st1_notification-69" d="M229.7,109.7c0.1-1.4-0.1-2.8-0.8-4.1c-0.4-1-0.9-2-1.5-2.9c-0.7-0.9-1.7-1.5-2.8-1.5c-1,0-1.9,0.5-2.5,1.3&#10;&#9;&#9;c-0.6,0.8-1,1.6-1.2,2.6c-1.1,4.2,0.2,8.6,3.3,11.6l-0.2-0.4"/>
	<path class="st2_notification-69" d="M224.2,117.3c-0.2,0-0.4-0.1-0.5-0.2c-3.3-3.2-4.6-7.9-3.5-12.3c0.2-1,0.7-2,1.4-2.9c0.7-0.9,1.8-1.5,3-1.5&#10;&#9;&#9;c1.3,0.1,2.5,0.7,3.3,1.8c0.7,0.9,1.2,2,1.6,3.1c0.7,1.4,1,2.9,0.8,4.5c-0.1,0.4-0.4,0.6-0.8,0.6c0,0,0,0,0,0&#10;&#9;&#9;c-0.4-0.1-0.6-0.4-0.6-0.8c0,0,0,0,0,0c0.1-1.3-0.2-2.6-0.7-3.7c-0.3-1-0.8-1.9-1.4-2.7c-0.5-0.7-1.4-1.2-2.2-1.2&#10;&#9;&#9;c-0.8,0-1.5,0.4-2,1c-0.5,0.7-0.9,1.5-1.1,2.3c-0.9,3.7,0,7.5,2.6,10.4c0.2,0,0.3,0.2,0.4,0.3l0.2,0.4c0.2,0.3,0.1,0.7-0.1,0.9&#10;&#9;&#9;C224.5,117.3,224.3,117.3,224.2,117.3z"/>
	<path class="st2_notification-69" d="M226.6,127.1c0,0-4.4-2.4-5.9-6.1c0,0-1.4,8.4,5.3,12.4L226.6,127.1z"/>
	<path class="st2_notification-69" d="M226,134.1c-0.1,0-0.2,0-0.4-0.1c-7-4.1-5.6-13-5.6-13.1c0.1-0.3,0.3-0.5,0.6-0.6c0.3,0,0.6,0.1,0.7,0.4&#10;&#9;&#9;c1.4,3.4,5.6,5.7,5.6,5.7c0.2,0.1,0.4,0.4,0.4,0.7l-0.6,6.3c0,0.2-0.2,0.4-0.4,0.6C226.2,134.1,226.1,134.1,226,134.1z&#10;&#9;&#9; M221.3,123.4c0.1,2.4,0.8,6.3,4.1,8.8l0.5-4.7C224.1,126.4,222.6,125,221.3,123.4z"/>
	<ellipse transform="matrix(0.3615 -0.9324 0.9324 0.3615 55.5104 288.8121)" class="st2_notification-69" cx="238.6" cy="103.9" rx="2" ry="0.8"/>
	<path class="st3_notification-69 targetColor" d="M198.3,131.1c0,0,24.4,1,30.6,14.2s4.2,58.4,7.8,62.2s12.2,22.4,11.9,23.2s-65.1,7.8-65.1,7.8&#10;&#9;&#9;s-0.7-14.8-3.7-34.4S180.3,128.7,198.3,131.1z" style="fill: rgb(34, 34, 34);"/>
	<path class="st1_notification-69" d="M209.1,261.3c-0.2,0-0.3-0.1-0.4-0.1c-0.3-0.2-0.4-0.7-0.1-1c0,0,0,0,0,0c8.8-11.1,4.3-17,4.1-17.3&#10;&#9;&#9;c-0.2-0.3-0.2-0.7,0.1-1s0.7-0.2,1,0.1c0.2,0.3,5.5,7-4.1,19C209.5,261.2,209.3,261.3,209.1,261.3z"/>
	<path class="st3_notification-69 targetColor" d="M190.2,131c0,0-37.3,40.5-43.7,116.4l21-0.4c0,0,9.3-39,35.4-81.8L190.2,131z" style="fill: rgb(34, 34, 34);"/>
	<path class="st2_notification-69" d="M246.4,224.8c0,0-0.1,0-0.1,0c-0.3-0.1-0.5-0.3-0.6-0.6c-0.2-0.7-2.5-4.5-4.4-7.9c-2.8-4.8-5.7-9.8-6.2-11.3&#10;&#9;&#9;c-0.6-1.7-1.5-14-2.5-30c-0.4-7-0.8-13-1.1-15.3c-0.7-4.8-1.8-9.6-3.3-14.2c-0.1-0.4,0-0.8,0.4-0.9s0.8,0,0.9,0.4c0,0,0,0,0,0.1&#10;&#9;&#9;c1.5,4.7,2.7,9.6,3.3,14.5c0.2,2.3,0.6,8.3,1.1,15.3c0.8,11.8,1.8,27.9,2.4,29.6c0.5,1.4,3.5,6.6,6.1,11.1c4.7,8.1,4.7,8.2,4.6,8.7&#10;&#9;&#9;C247,224.6,246.8,224.8,246.4,224.8z"/>
	<path class="st2_notification-69" d="M170.6,234.5c-0.1,0-0.2,0-0.2,0c-0.4-0.1-0.6-0.5-0.4-0.9c0.2-0.5,18.1-51.2,37-75.3c0.2-0.3,0.7-0.4,1-0.1&#10;&#9;&#9;c0,0,0,0,0,0c0.3,0.2,0.4,0.7,0.1,1c0,0,0,0,0,0c-18.7,23.9-36.6,74.4-36.8,74.9C171.2,234.4,170.9,234.5,170.6,234.5z"/>
	<path class="st1_notification-69" d="M295.6,176.6c0.1-5,1-10.3,4.2-14.2c0.8-1,2.1-1.9,3.2-1.4c0.8,0.5,1.3,1.3,1.3,2.2c0,0.9,0.2,1.8,0.5,2.6"/>
	<path class="st2_notification-69" d="M295.6,177.3L295.6,177.3c-0.4,0-0.7-0.3-0.7-0.7c0.1-6.4,1.6-11.2,4.4-14.6c1.3-1.6,2.8-2.2,4.1-1.6&#10;&#9;&#9;c1,0.6,1.7,1.6,1.7,2.8c0,0.2,0.1,0.5,0.1,0.7c0,0.6,0.2,1.2,0.4,1.7c0.2,0.3,0,0.8-0.3,0.9c-0.3,0.2-0.8,0-1-0.3l0,0&#10;&#9;&#9;c-0.3-0.7-0.5-1.4-0.5-2.2c0-0.2,0-0.4-0.1-0.6c-0.1-0.5-0.3-1.4-0.9-1.7s-1.8,0.4-2.4,1.2c-2.6,3.2-3.9,7.7-4.1,13.8&#10;&#9;&#9;C296.3,177,296,177.4,295.6,177.3C295.6,177.3,295.6,177.3,295.6,177.3z"/>
	<path class="st3_notification-69 targetColor" d="M194.5,116.4c-1.9-1.3-4-2.3-6.2-2.8c-3-0.4-6,0.7-8.7,2.1c-3.6,1.8-6.7,4.5-8.9,7.9&#10;&#9;&#9;c-2.1,3.4-2.6,7.9-0.8,11.5c1.8,3.4,5.4,5.4,9.1,6.2s7.6,0.5,11.4,0.2c3.6-0.3,7.3-0.3,10.9-0.1c7.5,0.6,14.6,3,22,4.4&#10;&#9;&#9;c4.6,0.9,2.8-4,1-5.8c-3-3-6.1-5.9-9.3-8.6C208.6,125.9,201.7,120.9,194.5,116.4z" style="fill: rgb(34, 34, 34);"/>
	<path class="st2_notification-69" d="M211.8,142.5c-0.1,0-0.3,0-0.4-0.1c-13.9-9-27.1-1.2-27.3-1.2c-0.3,0.2-0.8,0.1-1-0.2c0,0,0,0,0,0&#10;&#9;&#9;c-0.2-0.3-0.1-0.7,0.2-1c0,0,0,0,0.1,0c0.1-0.1,14.1-8.3,28.8,1.2c0.3,0.2,0.4,0.6,0.2,1c0,0,0,0,0,0&#10;&#9;&#9;C212.3,142.4,212.1,142.5,211.8,142.5z"/>
</g>
<g id="Notification_notification-69">
	<path class="st1_notification-69" d="M346.8,91h-60c-3.5,0-6.3,2.8-6.3,6.3v32c0,3.5,2.8,6.3,6.3,6.3h7.2v12.6l7.3-12.6h45.4c3.5,0,6.3-2.8,6.3-6.3&#10;&#9;&#9;v-32C353,93.8,350.2,91,346.8,91z"/>
	<path class="st0_notification-69" d="M294,148.8h-0.2c-0.3-0.1-0.5-0.4-0.5-0.7v-11.9h-6.5c-3.9,0-7-3.1-7-7v-32c0-3.9,3.1-7,7-7h60&#10;&#9;&#9;c3.9,0,7,3.1,7,7v32c0,3.9-3.1,7-7,7h-45l-7.1,12.2C294.5,148.7,294.3,148.8,294,148.8z M286.8,91.7c-3.1,0-5.6,2.5-5.6,5.6v32&#10;&#9;&#9;c0,3.1,2.5,5.6,5.6,5.6h7.2c0.4,0,0.7,0.3,0.7,0.7c0,0,0,0,0,0v9.9l6-10.3c0.1-0.2,0.4-0.3,0.6-0.4h45.4c3.1,0,5.6-2.5,5.6-5.6v-32&#10;&#9;&#9;c0-3.1-2.5-5.6-5.6-5.6L286.8,91.7z"/>
	<g id="_5xpas6.tif_notification-69">
		<path class="st0_notification-69" d="M316.8,123.8h-11c-0.4,0-0.8-0.3-0.8-0.7c0-0.2,0-0.4,0.1-0.6c0.4-0.7,0.9-1.3,1.3-2c0.8-1.2,1.4-2.6,1.6-4&#10;&#9;&#9;&#9;c0-0.3,0.1-0.6,0.1-0.9v-6c0-1.1,0.2-2.3,0.5-3.3c0.9-2.5,3-4.5,5.6-5.1c0.1,0,0.2-0.1,0.2-0.2c0-0.3,0-0.6,0-0.9&#10;&#9;&#9;&#9;c0-1.3,1-2.4,2.3-2.4c1.2,0,2.2,0.9,2.4,2.1c0,0.4,0,0.8,0,1.3c0,0.1,0,0.2,0.2,0.2c2.4,0.6,4.5,2.4,5.4,4.7&#10;&#9;&#9;&#9;c0.4,1,0.7,2.1,0.7,3.2c0,1.2,0,2.3,0,3.5c0,1,0,2,0,3c0,1.1,0.2,2.1,0.7,3.1c0.6,1.2,1.2,2.3,2,3.4c0.1,0.2,0.2,0.3,0.3,0.5&#10;&#9;&#9;&#9;c0.2,0.3,0.2,0.6,0,0.8c-0.1,0.3-0.4,0.4-0.7,0.4L316.8,123.8z M317.6,100.9v-0.8c0-0.4-0.3-0.8-0.8-0.8c-0.4,0-0.7,0.3-0.8,0.6&#10;&#9;&#9;&#9;c0,0.3,0,0.7,0,1L317.6,100.9z"/>
		<path class="st0_notification-69" d="M320.4,125.4c-0.9,2-3.2,2.9-5.1,2c-0.9-0.4-1.6-1.1-2-2H320.4z"/>
	</g>
	<circle class="st1_notification-69" cx="347" cy="132.8" r="9.8"/>
	<path class="st0_notification-69" d="M347,143.3c-5.8,0-10.5-4.7-10.5-10.5c0-5.8,4.7-10.5,10.5-10.5c5.8,0,10.5,4.7,10.5,10.5c0,0,0,0,0,0&#10;&#9;&#9;C357.5,138.6,352.8,143.3,347,143.3z M347,123.7c-5,0-9.1,4.1-9.1,9.1c0,5,4.1,9.1,9.1,9.1s9.1-4.1,9.1-9.1l0,0&#10;&#9;&#9;C356.1,127.8,352,123.7,347,123.7C347,123.7,347,123.7,347,123.7z"/>
	<path class="st0_notification-69" d="M346.4,129l-2.4,1.9l-1.2-1.4l3.7-3h1.8v11.9h-2L346.4,129z"/>
</g>
</svg>